<svg width="30" height="30" viewBox="0 0 30 30" fill="none" xmlns="http://www.w3.org/2000/svg">
<rect width="30" height="30" rx="10" fill="#A0A3A5"/>
<path fill-rule="evenodd" clip-rule="evenodd" d="M15 8.68421C13.6048 8.68421 12.4737 9.81528 12.4737 11.2105C12.4737 12.6058 13.6048 13.7368 15 13.7368C16.3953 13.7368 17.5263 12.6058 17.5263 11.2105C17.5263 9.81528 16.3953 8.68421 15 8.68421ZM10.7895 11.2105C10.7895 8.88512 12.6746 7 15 7C17.3254 7 19.2106 8.88512 19.2106 11.2105C19.2106 13.5359 17.3254 15.4211 15 15.4211C12.6746 15.4211 10.7895 13.5359 10.7895 11.2105ZM11.1736 18.5591C10.2858 18.9533 9.94739 19.4512 9.94739 20.0526C9.94739 20.241 9.98088 20.3475 10.0293 20.4248C10.0778 20.5021 10.1934 20.6331 10.505 20.774C11.1711 21.0754 12.4873 21.3158 15 21.3158C17.5128 21.3158 18.829 21.0754 19.495 20.774C19.8066 20.6331 19.9223 20.5021 19.9707 20.4248C20.0192 20.3475 20.0527 20.241 20.0527 20.0526C20.0527 19.4512 19.7143 18.9533 18.8265 18.5591C17.9149 18.1543 16.5766 17.9474 15 17.9474C13.4235 17.9474 12.0851 18.1543 11.1736 18.5591ZM10.4901 17.0198C11.712 16.4772 13.321 16.2632 15 16.2632C16.679 16.2632 18.2881 16.4772 19.51 17.0198C20.7557 17.573 21.7369 18.5488 21.7369 20.0526C21.7369 20.4457 21.6651 20.8929 21.3977 21.3194C21.1304 21.7458 20.7197 22.0685 20.1892 22.3085C19.1711 22.7691 17.5399 23 15 23C12.4602 23 10.829 22.7691 9.81081 22.3085C9.28033 22.0685 8.86964 21.7458 8.60232 21.3194C8.33497 20.8929 8.26318 20.4457 8.26318 20.0526C8.26318 18.5488 9.24437 17.573 10.4901 17.0198Z" fill="#080C11"/>
</svg>
