<svg width="30" height="30" viewBox="0 0 30 30" fill="none" xmlns="http://www.w3.org/2000/svg">
<rect width="30" height="30" rx="10" fill="#BCCDFF"/>
<path fill-rule="evenodd" clip-rule="evenodd" d="M10.9091 11.2105C10.9091 8.88512 12.7407 7 15 7C17.2593 7 19.0909 8.88512 19.0909 11.2105C19.0909 13.5359 17.2593 15.4211 15 15.4211C12.7407 15.4211 10.9091 13.5359 10.9091 11.2105ZM15 8.68421C13.6444 8.68421 12.5455 9.81528 12.5455 11.2105C12.5455 12.6058 13.6444 13.7368 15 13.7368C16.3556 13.7368 17.4545 12.6058 17.4545 11.2105C17.4545 9.81528 16.3556 8.68421 15 8.68421Z" fill="#080C11"/>
<path d="M10.3253 9.49103C10.7582 9.35781 11.0042 8.88859 10.8748 8.44299C10.7454 7.9974 10.2895 7.74417 9.85654 7.87739C8.51175 8.29121 7.63636 9.68834 7.63636 11.2105C7.63636 12.7327 8.51175 14.1298 9.85654 14.5437C10.2895 14.6769 10.7454 14.4237 10.8748 13.9781C11.0042 13.5325 10.7582 13.0632 10.3253 12.93C9.788 12.7647 9.27273 12.1192 9.27273 11.2105C9.27273 10.3018 9.788 9.65636 10.3253 9.49103Z" fill="#080C11"/>
<path d="M20.1435 7.87739C19.7105 7.74417 19.2546 7.9974 19.1252 8.44299C18.9958 8.88859 19.2418 9.35781 19.6747 9.49103C20.212 9.65636 20.7273 10.3018 20.7273 11.2105C20.7273 12.1192 20.212 12.7647 19.6747 12.93C19.2418 13.0632 18.9958 13.5325 19.1252 13.9781C19.2546 14.4237 19.7105 14.6769 20.1435 14.5437C21.4883 14.1298 22.3636 12.7327 22.3636 11.2105C22.3636 9.68834 21.4883 8.29121 20.1435 7.87739Z" fill="#080C11"/>
<path fill-rule="evenodd" clip-rule="evenodd" d="M15 16.2632C13.3687 16.2632 11.8054 16.4772 10.6182 17.0198C9.40786 17.573 8.45455 18.5488 8.45455 20.0526C8.45455 20.4457 8.52429 20.8929 8.78405 21.3194C9.04377 21.7458 9.44279 22.0685 9.95821 22.3085C10.9474 22.7691 12.5323 23 15 23C17.4677 23 19.0526 22.7691 20.0418 22.3085C20.5572 22.0685 20.9562 21.7458 21.216 21.3194C21.4757 20.8929 21.5455 20.4457 21.5455 20.0526C21.5455 18.5488 20.5921 17.573 19.3818 17.0198C18.1946 16.4772 16.6313 16.2632 15 16.2632ZM10.0909 20.0526C10.0909 19.4512 10.4197 18.9533 11.2823 18.5591C12.1679 18.1543 13.4682 17.9474 15 17.9474C16.5318 17.9474 17.8321 18.1543 18.7177 18.5591C19.5803 18.9533 19.9091 19.4512 19.9091 20.0526C19.9091 20.241 19.8766 20.3475 19.8295 20.4248C19.7824 20.5021 19.6701 20.6331 19.3673 20.774C18.7202 21.0754 17.4414 21.3158 15 21.3158C12.5586 21.3158 11.2798 21.0754 10.6327 20.774C10.3299 20.6331 10.2176 20.5021 10.1705 20.4248C10.1234 20.3475 10.0909 20.241 10.0909 20.0526Z" fill="#080C11"/>
<path d="M20.8126 15.8888C21.0134 15.4722 21.5044 15.3021 21.9092 15.5088C23.1314 16.1331 24 17.2115 24 18.7895C24 19.2546 23.6337 19.6316 23.1818 19.6316C22.7299 19.6316 22.3636 19.2546 22.3636 18.7895C22.3636 17.9859 21.975 17.4226 21.1818 17.0175C20.777 16.8108 20.6117 16.3054 20.8126 15.8888Z" fill="#080C11"/>
<path d="M8.81824 17.0175C9.22301 16.8108 9.38831 16.3054 9.18745 15.8888C8.98658 15.4722 8.49562 15.3021 8.09085 15.5088C6.86857 16.1331 6 17.2115 6 18.7895C6 19.2546 6.36631 19.6316 6.81818 19.6316C7.27005 19.6316 7.63636 19.2546 7.63636 18.7895C7.63636 17.9859 8.02503 17.4226 8.81824 17.0175Z" fill="#080C11"/>
</svg>
