<svg width="40" height="38" viewBox="0 0 40 38" fill="none" xmlns="http://www.w3.org/2000/svg">
<rect width="40" height="38" rx="10" fill="#A7A7A7"/>
<path d="M22.175 29.5562C21.9313 29.5375 21.7063 29.3687 21.6313 29.125L19.1 19.9375L9.85626 17.35C9.61251 17.275 9.44376 17.0687 9.42501 16.8062C9.40626 16.5437 9.55626 16.3187 9.80001 16.225L29.75 8.48123C29.825 8.46248 29.8813 8.44373 29.9563 8.44373C30.1063 8.44373 30.2563 8.49998 30.3688 8.61248C30.5375 8.78123 30.5938 9.02498 30.5 9.24998L22.7563 29.1812C22.6625 29.4062 22.4563 29.5562 22.2125 29.5562H22.175ZM19.7375 18.8875C19.9438 18.9437 20.0938 19.0937 20.15 19.3L22.3063 27.1L28.9438 10.0562L11.8813 16.6937L19.7375 18.8875Z" fill="black"/>
</svg>
