<svg width="36" height="36" viewBox="0 0 36 36" fill="none" xmlns="http://www.w3.org/2000/svg">
<path d="M26.5343 16.875H5.625C5.32663 16.875 5.04048 16.9935 4.82951 17.2045C4.61853 17.4154 4.5 17.7016 4.5 18C4.5 18.2983 4.61853 18.5845 4.82951 18.7955C5.04048 19.0064 5.32663 19.125 5.625 19.125H26.5343L18.3285 27.3285C18.1173 27.5397 17.9986 27.8262 17.9986 28.125C17.9986 28.4237 18.1173 28.7102 18.3285 28.9215C18.5397 29.1327 18.8263 29.2514 19.125 29.2514C19.4237 29.2514 19.7103 29.1327 19.9215 28.9215L30.0465 18.7965C30.1513 18.692 30.2344 18.5678 30.2911 18.4311C30.3478 18.2945 30.377 18.1479 30.377 18C30.377 17.852 30.3478 17.7055 30.2911 17.5688C30.2344 17.4321 30.1513 17.308 30.0465 17.2035L19.9215 7.07846C19.7103 6.86721 19.4237 6.74854 19.125 6.74854C18.8263 6.74854 18.5397 6.86721 18.3285 7.07846C18.1173 7.2897 17.9986 7.57621 17.9986 7.87496C17.9986 8.1737 18.1173 8.46021 18.3285 8.67146L26.5343 16.875Z" fill="#577B9D"/>
<path d="M26.5343 16.875H5.625C5.32663 16.875 5.04048 16.9935 4.82951 17.2045C4.61853 17.4154 4.5 17.7016 4.5 18C4.5 18.2983 4.61853 18.5845 4.82951 18.7955C5.04048 19.0064 5.32663 19.125 5.625 19.125H26.5343L18.3285 27.3285C18.1173 27.5397 17.9986 27.8262 17.9986 28.125C17.9986 28.4237 18.1173 28.7102 18.3285 28.9215C18.5397 29.1327 18.8263 29.2514 19.125 29.2514C19.4237 29.2514 19.7103 29.1327 19.9215 28.9215L30.0465 18.7965C30.1513 18.692 30.2344 18.5678 30.2911 18.4311C30.3478 18.2945 30.377 18.1479 30.377 18C30.377 17.852 30.3478 17.7055 30.2911 17.5688C30.2344 17.4321 30.1513 17.308 30.0465 17.2035L19.9215 7.07846C19.7103 6.86721 19.4237 6.74854 19.125 6.74854C18.8263 6.74854 18.5397 6.86721 18.3285 7.07846C18.1173 7.2897 17.9986 7.57621 17.9986 7.87496C17.9986 8.1737 18.1173 8.46021 18.3285 8.67146L26.5343 16.875Z" fill="black" fill-opacity="0.2"/>
</svg>
