<svg width="46" height="46" viewBox="0 0 46 46" fill="none" xmlns="http://www.w3.org/2000/svg">
<path d="M33.7812 8.62497C33.0351 8.62392 32.2983 8.79032 31.625 9.11192V7.90622C31.6255 6.70707 31.1976 5.54719 30.4185 4.6356C29.6395 3.724 28.5604 3.12063 27.3759 2.93422C26.1913 2.74781 24.9791 2.99062 23.9577 3.61889C22.9363 4.24716 22.1729 5.21958 21.8051 6.3609C21.0389 5.94532 20.1779 5.73592 19.3064 5.75321C18.435 5.77051 17.583 6.0139 16.8339 6.45955C16.0848 6.9052 15.4643 7.53782 15.0333 8.29541C14.6022 9.05301 14.3754 9.90958 14.375 10.7812V22.2812L13.6886 21.1797C13.0219 20.0292 11.9268 19.1894 10.6427 18.8438C9.35863 18.4983 7.98997 18.6752 6.83591 19.3358C5.68185 19.9964 4.83625 21.087 4.48394 22.3693C4.13163 23.6515 4.30127 25.0211 4.95578 26.1786C7.83078 32.2467 10.1541 36.5502 12.8117 39.2401C15.4963 41.9642 18.5438 43.125 23 43.125C27.1923 43.1202 31.2115 41.4527 34.1759 38.4883C37.1403 35.524 38.8077 31.5047 38.8125 27.3125V13.6562C38.8125 12.3218 38.2824 11.0421 37.3389 10.0986C36.3953 9.15504 35.1156 8.62497 33.7812 8.62497ZM35.9375 27.3125C35.9337 30.7425 34.5694 34.031 32.144 36.4565C29.7186 38.8819 26.4301 40.2462 23 40.25C19.338 40.25 16.9787 39.3731 14.8548 37.2222C12.4775 34.8126 10.2889 30.7265 7.52891 24.9011C7.51274 24.8654 7.49474 24.8306 7.475 24.7968C7.18906 24.3015 7.11163 23.7128 7.25973 23.1603C7.40784 22.6078 7.76934 22.1368 8.26473 21.8509C8.76011 21.5649 9.3488 21.4875 9.90127 21.6356C10.4538 21.7837 10.9248 22.1452 11.2107 22.6406C11.218 22.655 11.2264 22.6688 11.2359 22.6819L14.5906 28.0725C14.7554 28.3385 15.0025 28.5434 15.2943 28.6561C15.5861 28.7689 15.9067 28.7834 16.2075 28.6975C16.5083 28.6115 16.7729 28.4297 16.961 28.1798C17.1492 27.9298 17.2506 27.6253 17.25 27.3125V10.7812C17.25 10.2093 17.4772 9.66089 17.8816 9.25652C18.2859 8.85214 18.8344 8.62497 19.4063 8.62497C19.9781 8.62497 20.5266 8.85214 20.931 9.25652C21.3353 9.66089 21.5625 10.2093 21.5625 10.7812V21.5625C21.5625 21.9437 21.714 22.3093 21.9835 22.5789C22.2531 22.8485 22.6188 23 23 23C23.3813 23 23.7469 22.8485 24.0165 22.5789C24.2861 22.3093 24.4375 21.9437 24.4375 21.5625V7.90622C24.4375 7.33434 24.6647 6.78589 25.0691 6.38152C25.4734 5.97714 26.0219 5.74997 26.5938 5.74997C27.1656 5.74997 27.7141 5.97714 28.1184 6.38152C28.5228 6.78589 28.75 7.33434 28.75 7.90622V21.5625C28.75 21.9437 28.9014 22.3093 29.171 22.5789C29.4406 22.8485 29.8063 23 30.1875 23C30.5688 23 30.9344 22.8485 31.204 22.5789C31.4736 22.3093 31.625 21.9437 31.625 21.5625V13.6562C31.625 13.0843 31.8522 12.5359 32.2566 12.1315C32.6609 11.7271 33.2094 11.5 33.7812 11.5C34.3531 11.5 34.9016 11.7271 35.3059 12.1315C35.7103 12.5359 35.9375 13.0843 35.9375 13.6562V27.3125Z" fill="#577B9D"/>
<path d="M33.7812 8.62497C33.0351 8.62392 32.2983 8.79032 31.625 9.11192V7.90622C31.6255 6.70707 31.1976 5.54719 30.4185 4.6356C29.6395 3.724 28.5604 3.12063 27.3759 2.93422C26.1913 2.74781 24.9791 2.99062 23.9577 3.61889C22.9363 4.24716 22.1729 5.21958 21.8051 6.3609C21.0389 5.94532 20.1779 5.73592 19.3064 5.75321C18.435 5.77051 17.583 6.0139 16.8339 6.45955C16.0848 6.9052 15.4643 7.53782 15.0333 8.29541C14.6022 9.05301 14.3754 9.90958 14.375 10.7812V22.2812L13.6886 21.1797C13.0219 20.0292 11.9268 19.1894 10.6427 18.8438C9.35863 18.4983 7.98997 18.6752 6.83591 19.3358C5.68185 19.9964 4.83625 21.087 4.48394 22.3693C4.13163 23.6515 4.30127 25.0211 4.95578 26.1786C7.83078 32.2467 10.1541 36.5502 12.8117 39.2401C15.4963 41.9642 18.5438 43.125 23 43.125C27.1923 43.1202 31.2115 41.4527 34.1759 38.4883C37.1403 35.524 38.8077 31.5047 38.8125 27.3125V13.6562C38.8125 12.3218 38.2824 11.0421 37.3389 10.0986C36.3953 9.15504 35.1156 8.62497 33.7812 8.62497ZM35.9375 27.3125C35.9337 30.7425 34.5694 34.031 32.144 36.4565C29.7186 38.8819 26.4301 40.2462 23 40.25C19.338 40.25 16.9787 39.3731 14.8548 37.2222C12.4775 34.8126 10.2889 30.7265 7.52891 24.9011C7.51274 24.8654 7.49474 24.8306 7.475 24.7968C7.18906 24.3015 7.11163 23.7128 7.25973 23.1603C7.40784 22.6078 7.76934 22.1368 8.26473 21.8509C8.76011 21.5649 9.3488 21.4875 9.90127 21.6356C10.4538 21.7837 10.9248 22.1452 11.2107 22.6406C11.218 22.655 11.2264 22.6688 11.2359 22.6819L14.5906 28.0725C14.7554 28.3385 15.0025 28.5434 15.2943 28.6561C15.5861 28.7689 15.9067 28.7834 16.2075 28.6975C16.5083 28.6115 16.7729 28.4297 16.961 28.1798C17.1492 27.9298 17.2506 27.6253 17.25 27.3125V10.7812C17.25 10.2093 17.4772 9.66089 17.8816 9.25652C18.2859 8.85214 18.8344 8.62497 19.4063 8.62497C19.9781 8.62497 20.5266 8.85214 20.931 9.25652C21.3353 9.66089 21.5625 10.2093 21.5625 10.7812V21.5625C21.5625 21.9437 21.714 22.3093 21.9835 22.5789C22.2531 22.8485 22.6188 23 23 23C23.3813 23 23.7469 22.8485 24.0165 22.5789C24.2861 22.3093 24.4375 21.9437 24.4375 21.5625V7.90622C24.4375 7.33434 24.6647 6.78589 25.0691 6.38152C25.4734 5.97714 26.0219 5.74997 26.5938 5.74997C27.1656 5.74997 27.7141 5.97714 28.1184 6.38152C28.5228 6.78589 28.75 7.33434 28.75 7.90622V21.5625C28.75 21.9437 28.9014 22.3093 29.171 22.5789C29.4406 22.8485 29.8063 23 30.1875 23C30.5688 23 30.9344 22.8485 31.204 22.5789C31.4736 22.3093 31.625 21.9437 31.625 21.5625V13.6562C31.625 13.0843 31.8522 12.5359 32.2566 12.1315C32.6609 11.7271 33.2094 11.5 33.7812 11.5C34.3531 11.5 34.9016 11.7271 35.3059 12.1315C35.7103 12.5359 35.9375 13.0843 35.9375 13.6562V27.3125Z" fill="black" fill-opacity="0.2"/>
</svg>
