<svg width="28" height="32" viewBox="0 0 28 32" fill="none" xmlns="http://www.w3.org/2000/svg">
<g clip-path="url(#clip0_118_238)">
<path d="M8 9.25V6.75C8 6.3375 8.3375 6 8.75 6H11.25C11.6625 6 12 6.3375 12 6.75V9.25C12 9.6625 11.6625 10 11.25 10H8.75C8.3375 10 8 9.6625 8 9.25ZM16.75 10H19.25C19.6625 10 20 9.6625 20 9.25V6.75C20 6.3375 19.6625 6 19.25 6H16.75C16.3375 6 16 6.3375 16 6.75V9.25C16 9.6625 16.3375 10 16.75 10ZM8.75 16H11.25C11.6625 16 12 15.6625 12 15.25V12.75C12 12.3375 11.6625 12 11.25 12H8.75C8.3375 12 8 12.3375 8 12.75V15.25C8 15.6625 8.3375 16 8.75 16ZM16.75 16H19.25C19.6625 16 20 15.6625 20 15.25V12.75C20 12.3375 19.6625 12 19.25 12H16.75C16.3375 12 16 12.3375 16 12.75V15.25C16 15.6625 16.3375 16 16.75 16ZM12 21.25V18.75C12 18.3375 11.6625 18 11.25 18H8.75C8.3375 18 8 18.3375 8 18.75V21.25C8 21.6625 8.3375 22 8.75 22H11.25C11.6625 22 12 21.6625 12 21.25ZM16.75 22H19.25C19.6625 22 20 21.6625 20 21.25V18.75C20 18.3375 19.6625 18 19.25 18H16.75C16.3375 18 16 18.3375 16 18.75V21.25C16 21.6625 16.3375 22 16.75 22ZM28 29.75V32H0V29.75C0 29.3375 0.3375 29 0.75 29H1.96875V1.5C1.96875 0.66875 2.6375 0 3.46875 0H24.5312C25.3625 0 26.0312 0.66875 26.0312 1.5V29H27.25C27.6625 29 28 29.3375 28 29.75ZM4.96875 28.9375H12V24.75C12 24.3375 12.3375 24 12.75 24H15.25C15.6625 24 16 24.3375 16 24.75V28.9375H23.0312V3.0625L5 3L4.96875 28.9375Z" fill="#577B9D"/>
<path d="M8 9.25V6.75C8 6.3375 8.3375 6 8.75 6H11.25C11.6625 6 12 6.3375 12 6.75V9.25C12 9.6625 11.6625 10 11.25 10H8.75C8.3375 10 8 9.6625 8 9.25ZM16.75 10H19.25C19.6625 10 20 9.6625 20 9.25V6.75C20 6.3375 19.6625 6 19.25 6H16.75C16.3375 6 16 6.3375 16 6.75V9.25C16 9.6625 16.3375 10 16.75 10ZM8.75 16H11.25C11.6625 16 12 15.6625 12 15.25V12.75C12 12.3375 11.6625 12 11.25 12H8.75C8.3375 12 8 12.3375 8 12.75V15.25C8 15.6625 8.3375 16 8.75 16ZM16.75 16H19.25C19.6625 16 20 15.6625 20 15.25V12.75C20 12.3375 19.6625 12 19.25 12H16.75C16.3375 12 16 12.3375 16 12.75V15.25C16 15.6625 16.3375 16 16.75 16ZM12 21.25V18.75C12 18.3375 11.6625 18 11.25 18H8.75C8.3375 18 8 18.3375 8 18.75V21.25C8 21.6625 8.3375 22 8.75 22H11.25C11.6625 22 12 21.6625 12 21.25ZM16.75 22H19.25C19.6625 22 20 21.6625 20 21.25V18.75C20 18.3375 19.6625 18 19.25 18H16.75C16.3375 18 16 18.3375 16 18.75V21.25C16 21.6625 16.3375 22 16.75 22ZM28 29.75V32H0V29.75C0 29.3375 0.3375 29 0.75 29H1.96875V1.5C1.96875 0.66875 2.6375 0 3.46875 0H24.5312C25.3625 0 26.0312 0.66875 26.0312 1.5V29H27.25C27.6625 29 28 29.3375 28 29.75ZM4.96875 28.9375H12V24.75C12 24.3375 12.3375 24 12.75 24H15.25C15.6625 24 16 24.3375 16 24.75V28.9375H23.0312V3.0625L5 3L4.96875 28.9375Z" fill="black" fill-opacity="0.2"/>
</g>
<defs>
<clipPath id="clip0_118_238">
<rect width="28" height="32" fill="white"/>
</clipPath>
</defs>
</svg>
