<svg width="32" height="31" viewBox="0 0 32 31" fill="none" xmlns="http://www.w3.org/2000/svg">
<path fill-rule="evenodd" clip-rule="evenodd" d="M8.88957 8.66473C8.88957 4.73769 12.0731 1.5542 16.0001 1.5542C19.9271 1.5542 23.1106 4.73769 23.1106 8.66473C23.1106 12.5918 19.9271 15.7753 16.0001 15.7753C12.0731 15.7753 8.88957 12.5918 8.88957 8.66473ZM16.0001 4.39841C13.6439 4.39841 11.7338 6.3085 11.7338 8.66473C11.7338 11.0209 13.6439 12.931 16.0001 12.931C18.3563 12.931 20.2664 11.0209 20.2664 8.66473C20.2664 6.3085 18.3563 4.39841 16.0001 4.39841Z" fill="#080C11"/>
<path d="M7.87482 5.76092C8.62731 5.53595 9.05495 4.74355 8.82997 3.99105C8.605 3.23856 7.8126 2.81092 7.0601 3.0359C4.72267 3.73473 3.20114 6.09413 3.20114 8.66473C3.20114 11.2353 4.72267 13.5947 7.0601 14.2936C7.8126 14.5185 8.605 14.0909 8.82997 13.3384C9.05495 12.5859 8.62731 11.7935 7.87482 11.5685C6.94097 11.2893 6.04535 10.1993 6.04535 8.66473C6.04535 7.13012 6.94097 6.04012 7.87482 5.76092Z" fill="#080C11"/>
<path d="M24.9401 3.0359C24.1876 2.81092 23.3952 3.23856 23.1702 3.99105C22.9452 4.74355 23.3729 5.53595 24.1254 5.76092C25.0592 6.04012 25.9548 7.13012 25.9548 8.66473C25.9548 10.1993 25.0592 11.2893 24.1254 11.5685C23.3729 11.7935 22.9452 12.5859 23.1702 13.3384C23.3952 14.0909 24.1876 14.5185 24.9401 14.2936C27.2775 13.5947 28.799 11.2353 28.799 8.66473C28.799 6.09413 27.2775 3.73473 24.9401 3.0359Z" fill="#080C11"/>
<path fill-rule="evenodd" clip-rule="evenodd" d="M16.0001 17.1974C13.1647 17.1974 10.4474 17.5589 8.38389 18.4752C6.28023 19.4093 4.62325 21.0572 4.62325 23.5968C4.62325 24.2605 4.74447 25.0158 5.19596 25.7361C5.6474 26.4562 6.34095 27.0012 7.23681 27.4065C8.95623 28.1843 11.7109 28.5742 16.0001 28.5742C20.2893 28.5742 23.044 28.1843 24.7634 27.4065C25.6592 27.0012 26.3528 26.4562 26.8042 25.7361C27.2557 25.0158 27.3769 24.2605 27.3769 23.5968C27.3769 21.0572 25.7199 19.4093 23.6163 18.4752C21.5528 17.5589 18.8355 17.1974 16.0001 17.1974ZM7.46746 23.5968C7.46746 22.5812 8.03892 21.7404 9.53817 21.0746C11.0776 20.3911 13.3377 20.0416 16.0001 20.0416C18.6625 20.0416 20.9226 20.3911 22.462 21.0746C23.9613 21.7404 24.5327 22.5812 24.5327 23.5968C24.5327 23.9149 24.4762 24.0949 24.3944 24.2253C24.3125 24.3559 24.1173 24.577 23.591 24.8151C22.4662 25.324 20.2435 25.73 16.0001 25.73C11.7567 25.73 9.53395 25.324 8.40916 24.8151C7.88292 24.577 7.68765 24.3559 7.6058 24.2253C7.524 24.0949 7.46746 23.9149 7.46746 23.5968Z" fill="#080C11"/>
<path d="M26.1031 16.5652C26.4522 15.8617 27.3055 15.5744 28.0091 15.9235C30.1336 16.9777 31.6432 18.7988 31.6432 21.4637C31.6432 22.2491 31.0066 22.8858 30.2211 22.8858C29.4357 22.8858 28.799 22.2491 28.799 21.4637C28.799 20.1066 28.1235 19.1554 26.7448 18.4712C26.0412 18.1221 25.7539 17.2687 26.1031 16.5652Z" fill="#080C11"/>
<path d="M5.2554 18.4712C5.95895 18.1221 6.24626 17.2687 5.89713 16.5652C5.548 15.8617 4.69464 15.5744 3.99109 15.9235C1.86661 16.9777 0.356934 18.7988 0.356934 21.4637C0.356934 22.2491 0.993632 22.8858 1.77904 22.8858C2.56445 22.8858 3.20114 22.2491 3.20114 21.4637C3.20114 20.1066 3.87669 19.1554 5.2554 18.4712Z" fill="#080C11"/>
</svg>
