<svg width="30" height="31" viewBox="0 0 30 31" fill="none" xmlns="http://www.w3.org/2000/svg">
<path fill-rule="evenodd" clip-rule="evenodd" d="M14.9999 4.19627C12.599 4.19627 10.6527 6.14256 10.6527 8.54344C10.6527 10.9443 12.599 12.8906 14.9999 12.8906C17.4008 12.8906 19.3471 10.9443 19.3471 8.54344C19.3471 6.14256 17.4008 4.19627 14.9999 4.19627ZM7.75464 8.54344C7.75464 4.54198 10.9985 1.29816 14.9999 1.29816C19.0014 1.29816 22.2452 4.54198 22.2452 8.54344C22.2452 12.5449 19.0014 15.7887 14.9999 15.7887C10.9985 15.7887 7.75464 12.5449 7.75464 8.54344ZM8.41554 21.1885C6.88787 21.8669 6.30558 22.7236 6.30558 23.7585C6.30558 24.0826 6.3632 24.266 6.44654 24.3989C6.52994 24.532 6.72891 24.7573 7.26513 24.9999C8.41124 25.5184 10.6761 25.9321 14.9999 25.9321C19.3238 25.9321 21.5886 25.5184 22.7347 24.9999C23.2709 24.7573 23.4699 24.532 23.5533 24.3989C23.6366 24.266 23.6943 24.0826 23.6943 23.7585C23.6943 22.7236 23.112 21.8669 21.5843 21.1885C20.0157 20.492 17.7128 20.1359 14.9999 20.1359C12.2871 20.1359 9.98411 20.492 8.41554 21.1885ZM7.23938 18.5398C9.34199 17.6062 12.1107 17.2378 14.9999 17.2378C17.8891 17.2378 20.6578 17.6062 22.7605 18.5398C24.904 19.4917 26.5924 21.1708 26.5924 23.7585C26.5924 24.4348 26.4688 25.2044 26.0088 25.9383C25.5488 26.6721 24.8421 27.2274 23.9293 27.6403C22.1773 28.433 19.3704 28.8302 14.9999 28.8302C10.6294 28.8302 7.82257 28.433 6.07056 27.6403C5.15772 27.2274 4.45103 26.6721 3.99104 25.9383C3.53099 25.2044 3.40747 24.4348 3.40747 23.7585C3.40747 21.1708 5.09586 19.4917 7.23938 18.5398Z" fill="#080C11"/>
</svg>
