<svg width="51" height="51" viewBox="0 0 51 51" fill="none" xmlns="http://www.w3.org/2000/svg">
<path d="M20.3203 40.6375H29.0859V32.4074H20.3203V40.6375ZM24.7031 44.8896C27.7217 44.8896 28.6604 43.2528 28.9537 42.2344H20.4526C20.7458 43.2544 21.6846 44.8896 24.7031 44.8896ZM24.7031 4.51516C21.7443 4.51516 18.9067 5.69055 16.8145 7.78275C14.7223 9.87496 13.5469 12.7126 13.5469 15.6714C13.5469 21.8233 19.8342 23.5398 20.2773 30.812H22.3013C22.2886 30.7706 22.2647 30.7324 22.2567 30.6845L19.0692 13.1581C19.0392 12.9707 19.0768 12.7788 19.1752 12.6166C19.2736 12.4544 19.4265 12.3325 19.6065 12.2725C19.7865 12.2126 19.9819 12.2186 20.1579 12.2894C20.3339 12.3602 20.479 12.4913 20.5673 12.6592L21.4487 14.4219L22.33 12.6576C22.3964 12.5259 22.4981 12.4151 22.6238 12.3377C22.7494 12.2604 22.8941 12.2194 23.0416 12.2194C23.1892 12.2194 23.3339 12.2604 23.4595 12.3377C23.5851 12.4151 23.6868 12.5259 23.7533 12.6576L24.6346 14.4203L25.5159 12.656C25.5815 12.5233 25.6829 12.4115 25.8086 12.3334C25.9344 12.2553 26.0795 12.2139 26.2275 12.2139C26.3756 12.2139 26.5207 12.2553 26.6465 12.3334C26.7722 12.4115 26.8736 12.5233 26.9392 12.656L27.8221 14.4187L28.7034 12.6544C28.7908 12.4858 28.9356 12.354 29.1116 12.2826C29.2876 12.2113 29.4833 12.2051 29.6634 12.2653C29.8436 12.3255 29.9963 12.448 30.0941 12.6108C30.1919 12.7736 30.2283 12.966 30.1968 13.1533L27.0093 30.6814C27.0029 30.7292 26.9774 30.7658 26.9647 30.8057H29.1242C29.5673 23.535 35.8562 21.8169 35.8562 15.665C35.8562 9.50679 30.8614 4.50879 24.6999 4.50879L24.7031 4.51516ZM27.8237 16.999C27.6761 16.9996 27.5313 16.9588 27.4057 16.8814C27.2801 16.8039 27.1786 16.6929 27.1129 16.5607L26.2299 14.7996L25.3486 16.5623C25.2816 16.694 25.1795 16.8046 25.0536 16.8818C24.9276 16.9591 24.7828 17.0001 24.6351 17.0003C24.4873 17.0004 24.3424 16.9598 24.2163 16.8828C24.0903 16.8058 23.9879 16.6954 23.9206 16.5639L23.0393 14.8028L22.1579 16.5655C22.0924 16.6979 21.991 16.8093 21.8654 16.8871C21.7398 16.9648 21.5948 17.0058 21.4471 17.0054H21.3881L23.707 29.7554H25.5669L27.8843 17.0054H27.8237V16.999Z" fill="#577B9D"/>
<path d="M20.3203 40.6375H29.0859V32.4074H20.3203V40.6375ZM24.7031 44.8896C27.7217 44.8896 28.6604 43.2528 28.9537 42.2344H20.4526C20.7458 43.2544 21.6846 44.8896 24.7031 44.8896ZM24.7031 4.51516C21.7443 4.51516 18.9067 5.69055 16.8145 7.78275C14.7223 9.87496 13.5469 12.7126 13.5469 15.6714C13.5469 21.8233 19.8342 23.5398 20.2773 30.812H22.3013C22.2886 30.7706 22.2647 30.7324 22.2567 30.6845L19.0692 13.1581C19.0392 12.9707 19.0768 12.7788 19.1752 12.6166C19.2736 12.4544 19.4265 12.3325 19.6065 12.2725C19.7865 12.2126 19.9819 12.2186 20.1579 12.2894C20.3339 12.3602 20.479 12.4913 20.5673 12.6592L21.4487 14.4219L22.33 12.6576C22.3964 12.5259 22.4981 12.4151 22.6238 12.3377C22.7494 12.2604 22.8941 12.2194 23.0416 12.2194C23.1892 12.2194 23.3339 12.2604 23.4595 12.3377C23.5851 12.4151 23.6868 12.5259 23.7533 12.6576L24.6346 14.4203L25.5159 12.656C25.5815 12.5233 25.6829 12.4115 25.8086 12.3334C25.9344 12.2553 26.0795 12.2139 26.2275 12.2139C26.3756 12.2139 26.5207 12.2553 26.6465 12.3334C26.7722 12.4115 26.8736 12.5233 26.9392 12.656L27.8221 14.4187L28.7034 12.6544C28.7908 12.4858 28.9356 12.354 29.1116 12.2826C29.2876 12.2113 29.4833 12.2051 29.6634 12.2653C29.8436 12.3255 29.9963 12.448 30.0941 12.6108C30.1919 12.7736 30.2283 12.966 30.1968 13.1533L27.0093 30.6814C27.0029 30.7292 26.9774 30.7658 26.9647 30.8057H29.1242C29.5673 23.535 35.8562 21.8169 35.8562 15.665C35.8562 9.50679 30.8614 4.50879 24.6999 4.50879L24.7031 4.51516ZM27.8237 16.999C27.6761 16.9996 27.5313 16.9588 27.4057 16.8814C27.2801 16.8039 27.1786 16.6929 27.1129 16.5607L26.2299 14.7996L25.3486 16.5623C25.2816 16.694 25.1795 16.8046 25.0536 16.8818C24.9276 16.9591 24.7828 17.0001 24.6351 17.0003C24.4873 17.0004 24.3424 16.9598 24.2163 16.8828C24.0903 16.8058 23.9879 16.6954 23.9206 16.5639L23.0393 14.8028L22.1579 16.5655C22.0924 16.6979 21.991 16.8093 21.8654 16.8871C21.7398 16.9648 21.5948 17.0058 21.4471 17.0054H21.3881L23.707 29.7554H25.5669L27.8843 17.0054H27.8237V16.999Z" fill="black" fill-opacity="0.2"/>
</svg>
