<svg width="37" height="37" viewBox="0 0 37 37" fill="none" xmlns="http://www.w3.org/2000/svg">
<path d="M32.375 22.3733L25.569 19.3222L25.543 19.3107C25.1006 19.12 24.6175 19.0432 24.1378 19.0874C23.658 19.1315 23.197 19.2953 22.7969 19.5636C22.7408 19.6012 22.6868 19.6417 22.635 19.685L19.4106 22.4311C17.5317 21.4122 15.5906 19.487 14.5702 17.6312L17.325 14.3561C17.3693 14.3033 17.4103 14.2478 17.4478 14.1899C17.7091 13.7912 17.8677 13.3341 17.9096 12.8593C17.9515 12.3845 17.8752 11.9067 17.6877 11.4684C17.6833 11.46 17.6794 11.4513 17.6762 11.4424L14.6266 4.62485C14.3762 4.05471 13.949 3.58031 13.4081 3.27185C12.8672 2.9634 12.2414 2.83728 11.6232 2.91216C9.52515 3.18777 7.59916 4.21767 6.20494 5.80951C4.81071 7.40135 4.04361 9.44627 4.04689 11.5624C4.04689 23.3575 13.6423 32.953 25.4375 32.953C27.5536 32.9563 29.5985 32.1891 31.1904 30.7949C32.7822 29.4007 33.8121 27.4747 34.0877 25.3766C34.1626 24.7585 34.0365 24.1327 33.728 23.5917C33.4196 23.0508 32.9452 22.6236 32.375 22.3733ZM25.4375 29.4842C20.6861 29.4785 16.1309 27.5885 12.7712 24.2287C9.41141 20.8689 7.52137 16.3138 7.51564 11.5624C7.51232 10.3649 7.91885 9.20237 8.66767 8.26793C9.41648 7.33349 10.4625 6.68341 11.6319 6.42571L14.352 12.496L11.5827 15.7942C11.538 15.8476 11.4965 15.9036 11.4584 15.9619C11.1855 16.3789 11.025 16.8595 10.9926 17.3569C10.9602 17.8542 11.0569 18.3515 11.2734 18.8005C12.6349 21.587 15.4403 24.3736 18.2558 25.738C18.7077 25.9522 19.2075 26.0456 19.7063 26.0088C20.2051 25.9721 20.6859 25.8066 21.1016 25.5284C21.1575 25.4907 21.211 25.4497 21.262 25.4056L24.5038 22.6493L30.5742 25.368C30.3165 26.5374 29.6664 27.5834 28.7319 28.3322C27.7975 29.081 26.635 29.4875 25.4375 29.4842Z" fill="#F5F5F5"/>
</svg>
