<svg width="30" height="31" viewBox="0 0 30 31" fill="none" xmlns="http://www.w3.org/2000/svg">
<path fill-rule="evenodd" clip-rule="evenodd" d="M15.361 3.93196C15.1252 3.8633 14.8747 3.8633 14.6389 3.93196C14.5711 3.95173 14.4518 4.00118 14.1981 4.19326C13.9313 4.39527 13.6047 4.68438 13.0957 5.1368L6.33069 11.1501C5.50133 11.8873 5.26622 12.1096 5.10277 12.3555C4.94554 12.592 4.8284 12.8529 4.75608 13.1275C4.68091 13.413 4.67097 13.7364 4.67097 14.8461V21.303C4.67097 22.4276 4.67201 23.1921 4.72105 23.7827C4.76881 24.3578 4.85534 24.6514 4.96169 24.8561C5.20669 25.3277 5.59124 25.7123 6.06287 25.9573C6.26761 26.0636 6.56119 26.1502 7.13631 26.1979C7.72688 26.247 8.49138 26.248 9.61597 26.248H9.83546V22.3746C9.83546 19.5224 12.1477 17.2101 15 17.2101C17.8522 17.2101 20.1645 19.5224 20.1645 22.3746V26.248H20.3839C21.5085 26.248 22.273 26.247 22.8636 26.1979C23.4387 26.1502 23.7323 26.0636 23.937 25.9573C24.4087 25.7123 24.7932 25.3277 25.0382 24.8561C25.1446 24.6514 25.2311 24.3578 25.2789 23.7827C25.3279 23.1921 25.3289 22.4276 25.3289 21.303V14.8461C25.3289 13.7364 25.319 13.413 25.2438 13.1275C25.1715 12.8529 25.0544 12.592 24.8971 12.3555C24.7337 12.1096 24.4986 11.8873 23.6692 11.1501L16.9042 5.1368C16.3952 4.68438 16.0686 4.39527 15.8018 4.19326C15.5481 4.00118 15.4288 3.95173 15.361 3.93196ZM13.9169 1.45272C14.6243 1.24672 15.3757 1.24672 16.083 1.45272C16.5738 1.59565 16.9808 1.84701 17.3605 2.13452C17.7181 2.40529 18.1209 2.7633 18.5846 3.17557L25.3848 9.22014C25.4214 9.25269 25.4575 9.28478 25.4932 9.31647C26.1668 9.91454 26.6756 10.3664 27.0476 10.926C27.3621 11.399 27.5963 11.9207 27.741 12.47C27.9121 13.1198 27.9117 13.8003 27.9112 14.701C27.9112 14.7487 27.9112 14.7971 27.9112 14.8461V21.3572C27.9112 22.414 27.9112 23.2863 27.8523 23.9964C27.791 24.7341 27.6595 25.4117 27.3297 26.0465C26.8398 26.9897 26.0707 27.7588 25.1274 28.2488C24.4926 28.5785 23.815 28.7101 23.0773 28.7713C22.3672 28.8303 21.495 28.8303 20.4381 28.8303H19.9127C19.9027 28.8303 19.8926 28.8303 19.8823 28.8303C19.7259 28.8303 19.5392 28.8304 19.3747 28.8167C19.1841 28.8009 18.9111 28.7602 18.6261 28.6122C18.2724 28.4285 17.984 28.1401 17.8003 27.7863C17.6522 27.5014 17.6116 27.2284 17.5957 27.0377C17.5821 26.8733 17.5821 26.6865 17.5822 26.5302L17.5822 22.3746C17.5822 20.9485 16.4261 19.7924 15 19.7924C13.5738 19.7924 12.4177 20.9485 12.4177 22.3746L12.4177 26.5302C12.4178 26.6865 12.4179 26.8733 12.4042 27.0377C12.3884 27.2284 12.3477 27.5014 12.1997 27.7863C12.0159 28.14 11.7275 28.4285 11.3738 28.6122C11.0888 28.7602 10.8159 28.8009 10.6252 28.8167C10.4607 28.8304 10.274 28.8303 10.1176 28.8303C10.1073 28.8303 10.0972 28.8303 10.0872 28.8303H9.56177C8.50494 28.8303 7.63273 28.8303 6.9226 28.7713C6.18492 28.7101 5.50728 28.5785 4.87251 28.2488C3.92926 27.7588 3.16016 26.9897 2.67017 26.0465C2.34044 25.4117 2.20892 24.7341 2.14766 23.9964C2.08869 23.2863 2.0887 22.4141 2.08872 21.3572L2.08872 14.8461C2.08872 14.7971 2.0887 14.7487 2.08867 14.701C2.0882 13.8003 2.08785 13.1198 2.25895 12.47C2.40359 11.9207 2.63786 11.399 2.95233 10.926C3.32434 10.3664 3.83316 9.91455 4.50669 9.31647C4.54238 9.28479 4.57852 9.25269 4.61514 9.22014L11.4153 3.17558C11.879 2.76331 12.2818 2.40529 12.6394 2.13452C13.0192 1.84701 13.4261 1.59565 13.9169 1.45272Z" fill="#080C11"/>
</svg>
