<svg width="30" height="31" viewBox="0 0 30 31" fill="none" xmlns="http://www.w3.org/2000/svg">
<path d="M10.1819 12.311C11.3223 12.311 12.2468 11.3865 12.2468 10.2461C12.2468 9.10566 11.3223 8.18117 10.1819 8.18117C9.04151 8.18117 8.11702 9.10566 8.11702 10.2461C8.11702 11.3865 9.04151 12.311 10.1819 12.311Z" fill="#080C11"/>
<path fill-rule="evenodd" clip-rule="evenodd" d="M13.631 1.29816H16.3691C18.2771 1.29815 19.7945 1.29814 21.018 1.39975C22.2711 1.50381 23.3388 1.72153 24.3139 2.22808C25.8225 3.01171 27.0525 4.24174 27.8361 5.7503C28.3427 6.72545 28.5604 7.79312 28.6645 9.04622C28.7661 10.2698 28.7661 11.7871 28.7661 13.6951V16.4332C28.7661 17.3843 28.7661 18.2386 28.7535 19.0076C28.7728 19.1496 28.7699 19.2939 28.7449 19.4349C28.7304 20.0371 28.7058 20.584 28.6645 21.0822C28.5604 22.3352 28.3427 23.4029 27.8361 24.3781C27.0525 25.8866 25.8225 27.1167 24.3139 27.9003C23.3388 28.4068 22.2711 28.6246 21.018 28.7286C19.7945 28.8302 18.2771 28.8302 16.3692 28.8302H13.631C11.7231 28.8302 10.2056 28.8302 8.98207 28.7286C7.72898 28.6246 6.6613 28.4068 5.68616 27.9003C4.59121 27.3315 3.64301 26.5276 2.90572 25.5527C2.89176 25.535 2.87828 25.517 2.86529 25.4987C2.60312 25.1461 2.36834 24.7716 2.16393 24.3781C1.65738 23.4029 1.43966 22.3352 1.3356 21.0822C1.23399 19.8586 1.234 18.3412 1.23401 16.4332V13.6951C1.234 11.7872 1.23399 10.2698 1.3356 9.04622C1.43966 7.79312 1.65738 6.72545 2.16393 5.7503C2.94757 4.24174 4.17759 3.01171 5.68616 2.22808C6.6613 1.72153 7.72898 1.50381 8.98207 1.39975C10.2056 1.29814 11.723 1.29815 13.631 1.29816ZM26.0129 13.7564V15.7688L24.1035 13.7771C23.0157 12.6423 21.2003 12.6472 20.1185 13.7876L13.694 20.5608L11.5797 18.0045C10.448 16.6361 8.336 16.6812 7.26363 18.0965L4.24934 22.0749C4.17556 21.7357 4.11946 21.3371 4.07936 20.8543C3.98832 19.7581 3.98722 18.355 3.98722 16.372V13.7564C3.98722 11.7734 3.98832 10.3703 4.07936 9.27408C4.16903 8.19431 4.33878 7.53612 4.60716 7.01946C5.12959 6.01375 5.9496 5.19374 6.95531 4.67131C7.47197 4.40293 8.13016 4.23318 9.20993 4.14351C10.3062 4.05247 11.7093 4.05136 13.6923 4.05136H16.3078C18.2908 4.05136 19.6939 4.05247 20.7901 4.14351C21.8699 4.23318 22.5281 4.40293 23.0448 4.67131C24.0505 5.19374 24.8705 6.01375 25.3929 7.01946C25.6613 7.53612 25.831 8.19431 25.9207 9.27408C26.0118 10.3703 26.0129 11.7734 26.0129 13.7564ZM6.95531 25.4571C6.52289 25.2324 6.12479 24.9528 5.76992 24.627L9.4581 19.7592L11.5724 22.3155C12.6253 23.5886 14.5545 23.6542 15.6915 22.4555L22.116 15.6823L25.9828 19.7159C25.9692 20.1317 25.9495 20.5083 25.9207 20.8543C25.831 21.9341 25.6613 22.5922 25.3929 23.1089C24.8705 24.1146 24.0505 24.9346 23.0448 25.4571C22.5281 25.7254 21.8699 25.8952 20.7901 25.9849C19.6939 26.0759 18.2908 26.077 16.3078 26.077H13.6923C11.7093 26.077 10.3062 26.0759 9.20993 25.9849C8.13016 25.8952 7.47197 25.7254 6.95531 25.4571Z" fill="#080C11"/>
</svg>
