<svg width="32" height="31" viewBox="0 0 32 31" fill="none" xmlns="http://www.w3.org/2000/svg">
<path d="M9.06689 28.8303H5.23401C3.57715 28.8303 2.23401 27.4871 2.23401 25.8303V21.9974C2.23401 20.3405 3.57716 18.9974 5.23401 18.9974H26.7661C28.4229 18.9974 29.7661 20.3405 29.7661 21.9974V25.8303C29.7661 27.4871 28.4229 28.8303 26.7661 28.8303H22.9332C21.2763 28.8303 19.9332 27.4871 19.9332 25.8303V4.29822C19.9332 2.64136 21.2763 1.29822 22.9332 1.29822H26.7661C28.4229 1.29822 29.7661 2.64136 29.7661 4.29822V8.1311C29.7661 9.78795 28.4229 11.1311 26.7661 11.1311H5.23401C3.57715 11.1311 2.23401 9.78795 2.23401 8.1311V4.29822C2.23401 2.64136 3.57715 1.29822 5.23401 1.29822H9.06689C10.7237 1.29822 12.0669 2.64137 12.0669 4.29822V25.8303C12.0669 27.4871 10.7237 28.8303 9.06689 28.8303Z" stroke="#080C11" stroke-width="2.5" stroke-linecap="round" stroke-linejoin="round"/>
</svg>
