<svg width="30" height="31" viewBox="0 0 30 31" fill="none" xmlns="http://www.w3.org/2000/svg">
<path fill-rule="evenodd" clip-rule="evenodd" d="M29.4532 7.49344C29.4532 4.07245 26.68 1.29919 23.259 1.29919H15.6882C12.6474 1.29919 10.1822 3.76431 10.1822 6.80519V8.18169C10.1822 8.94191 10.7985 9.55819 11.5587 9.55819C12.319 9.55819 12.9352 8.94191 12.9352 8.18169V6.80519C12.9352 5.28475 14.1678 4.05219 15.6882 4.05219H23.259C25.1595 4.05219 26.7002 5.59289 26.7002 7.49344V22.6349C26.7002 24.5355 25.1595 26.0762 23.259 26.0762H15.6882C14.1678 26.0762 12.9352 24.8436 12.9352 23.3232V21.9467C12.9352 21.1865 12.319 20.5702 11.5587 20.5702C10.7985 20.5702 10.1822 21.1865 10.1822 21.9467V23.3232C10.1822 26.3641 12.6474 28.8292 15.6882 28.8292H23.259C26.68 28.8292 29.4532 26.0559 29.4532 22.6349V7.49344ZM7.02608 9.96136C6.48852 9.42381 5.61697 9.42381 5.07941 9.96136L0.949911 14.0909C0.412355 14.6284 0.412355 15.5 0.949911 16.0375L5.07941 20.167C5.61697 20.7046 6.48852 20.7046 7.02608 20.167C7.56364 19.6295 7.56364 18.7579 7.02608 18.2204L5.24641 16.4407L17.0647 16.4407C17.825 16.4407 18.4412 15.8244 18.4412 15.0642C18.4412 14.304 17.825 13.6877 17.0647 13.6877L5.24641 13.6877L7.02608 11.908C7.56364 11.3705 7.56364 10.4989 7.02608 9.96136Z" fill="#080C11"/>
</svg>
